<svg xmlns="http://www.w3.org/2000/svg"  viewBox="0 0 32 32" width="64px" height="64px" baseProfile="basic"><circle cx="10" cy="4" r="1"/><circle cx="13" cy="4" r="1"/><circle cx="16" cy="4" r="1"/><circle cx="19" cy="4" r="1"/><circle cx="22" cy="4" r="1"/><circle cx="10" cy="7" r="1"/><circle cx="13" cy="7" r="1"/><circle cx="16" cy="7" r="1"/><circle cx="19" cy="7" r="1"/><circle cx="22" cy="7" r="1"/><circle cx="1" cy="13" r="1"/><circle cx="1" cy="10" r="1"/><circle cx="4" cy="7" r="1"/><circle cx="7" cy="4" r="1"/><circle cx="7" cy="7" r="1"/><circle cx="25" cy="7" r="1"/><circle cx="4" cy="10" r="1"/><circle cx="28" cy="10" r="1"/><circle cx="31" cy="10" r="1"/><circle cx="28" cy="7" r="1"/><circle cx="25" cy="4" r="1"/><circle cx="4" cy="13" r="1"/><circle cx="7" cy="13" r="1"/><circle cx="10" cy="13" r="1"/><circle cx="13" cy="13" r="1"/><circle cx="16" cy="13" r="1"/><circle cx="19" cy="13" r="1"/><circle cx="22" cy="13" r="1"/><circle cx="25" cy="13" r="1"/><circle cx="4" cy="16" r="1"/><circle cx="7" cy="16" r="1"/><circle cx="10" cy="16" r="1"/><circle cx="13" cy="16" r="1"/><circle cx="16" cy="16" r="1"/><circle cx="19" cy="16" r="1"/><circle cx="22" cy="16" r="1"/><circle cx="25" cy="16" r="1"/><circle cx="22" cy="19" r="1"/><circle cx="25" cy="19" r="1"/><circle cx="10" cy="22" r="1"/><circle cx="13" cy="22" r="1"/><circle cx="22" cy="22" r="1"/><circle cx="19" cy="22" r="1"/><circle cx="13" cy="25" r="1"/><circle cx="16" cy="25" r="1"/><circle cx="16" cy="28" r="1"/><circle cx="28" cy="16" r="1"/><circle cx="19" cy="25" r="1"/></svg>